# xmcd CD database file
#
# Track frame offsets:
#	150
#	18443
#	43503
#	65182
#	80911
#	89586
#	108276
#	131913
#	153395
#	168486
#	174455
#	193638
#	213352
#
# Disc length: 3132 seconds
#
# Revision: 0
# Processed by: cddbd v1.5.2PL0 Copyright (c) Steve Scherf et al.
# Submitted via: CDex 1.51
#
DISCID=b90c3a0d
DTITLE=Sandra Nkake - Tangerine Moon Wishes
DYEAR=2017
DGENRE=Jazz
TTITLE0=The Dawn 
TTITLE1=Dreaming
TTITLE2=Hope
TTITLE3=Mon Coeur
TTITLE4=Un Voeu
TTITLE5=Change
TTITLE6=Fly
TTITLE7=The Last Journey
TTITLE8=Nuit
TTITLE9=L'Appel
TTITLE10=Maybe
TTITLE11=The Dusk
TTITLE12=Lune Rousse
EXTD=YEAR: 2017
EXTT0=
EXTT1=
EXTT2=
EXTT3=
EXTT4=
EXTT5=
EXTT6=
EXTT7=
EXTT8=
EXTT9=
EXTT10=
EXTT11=
EXTT12=
PLAYORDER=
